<svg width="23" height="23" xmlns="http://www.w3.org/2000/svg"><g fill="none" fill-rule="evenodd"><path d="M.032 11.64c0 6.066 4.934 11 11 11 6.065 0 11-4.934 11-11 0-6.065-4.935-11-11-11-6.066 0-11 4.935-11 11z" fill="#C5DCFF"/><path d="m12.21 11.623 2.374-2.443a.833.833 0 1 0-1.195-1.16l-2.374 2.443-2.443-2.375a.834.834 0 0 0-1.16 1.195l2.442 2.374L7.48 14.1a.833.833 0 1 0 1.194 1.16l2.375-2.442 2.443 2.375a.832.832 0 0 0 1.177-.018.833.833 0 0 0-.017-1.177l-2.442-2.375z" fill="#323A56"/></g></svg>