<svg width="1024" height="606" fill="none" xmlns="http://www.w3.org/2000/svg"><g style="mix-blend-mode:multiply" opacity=".1"><path d="M423.504 537.172c-19.904-2.458-41.033 1.229-59.1-7.989-37.052-18.744-34.603-78.048-69.511-100.787-18.986-12.598-44.708-10.14-64.919.308-20.21 10.447-35.521 28.269-49.607 46.091-31.234 40.253-57.875 84.501-78.698 131.206h397.165c-9.799-34.414-39.502-64.22-75.33-68.829Z" fill="#666"/><path d="M.007 606.001V386.914c56.344-41.789 112.688-83.886 171.176-123.524 39.808-27.041 80.229-52.852 122.487-76.819 55.119-31.342 131.674-33.493 169.951 20.895 22.048 31.035 26.335 73.131 37.359 110.926 11.023 37.795 35.521 77.126 70.736 78.048 32.459.922 57.875-31.035 74.105-62.992 15.923-31.956 28.784-68.215 55.731-88.802 32.766-24.889 78.086-18.436 111.77 4.609 8.574 5.838 16.536 12.598 23.885 20.28 21.741 21.817 39.196 49.472 55.426 76.819 29.397 50.086 33.684 79.892 60.325 131.821 22.353 43.326 44.707 87.266 71.042 127.519H498.53c-9.799-34.415-39.196-64.22-75.33-68.829-19.904-2.459-41.033 1.229-58.794-7.99-37.052-18.743-34.908-78.048-69.511-100.786-18.986-12.598-44.708-10.14-64.918.307-20.211 10.448-35.522 28.27-49.608 46.092-31.234 40.253-57.875 84.5-78.698 131.206H.007v.307Z" fill="url('#paint0_linear_6094_102467')"/><path d="M171.483 263.436c15.617-12.598 30.621-25.196 44.095-38.102 57.569-55.002 112.382-113.077 163.827-173.917 26.028-30.728 66.449-65.45 101.052-44.555 11.33 7.067 18.985 19.05 24.191 31.342 11.636 27.655 14.086 57.768 18.985 87.266 4.9 29.498 13.474 59.918 34.297 81.428 20.823 21.509 56.956 30.42 80.841 12.598 20.211-15.057 25.723-42.711 41.952-62.07 24.498-29.498 71.349-33.185 104.114-13.52 32.766 19.666 51.139 58.075 53.895 96.177.612 10.14.306 20.28-.613 30.113a189.602 189.602 0 0 0-23.885-20.28c-33.684-23.046-79.004-29.498-111.769-4.609-26.948 20.587-39.809 56.846-55.732 88.802-15.923 31.957-41.646 63.913-74.105 62.991-35.215-.921-59.712-40.252-70.736-78.047-11.024-37.795-15.311-79.584-37.359-110.926-38.277-54.695-114.831-52.544-169.951-20.895-42.87 23.353-83.597 49.164-123.099 76.204Z" fill="url('#paint1_linear_6094_102467')"/><path d="M916.744 22.243c-17.516 5.766-16.887 55.8 1.405 111.754 18.292 55.955 47.32 96.641 64.836 90.875 17.515-5.766 16.887-55.8-1.405-111.754-18.292-55.955-47.32-96.64-64.836-90.875Z" fill="#fff"/></g><defs><linearGradient id="paint0_linear_6094_102467" x1="1024.16" y1="385.234" x2=".134" y2="385.234" gradientUnits="userSpaceOnUse"><stop stop-color="#FFE566"/><stop offset="1" stop-color="#FFB0EB"/></linearGradient><linearGradient id="paint1_linear_6094_102467" x1="838.416" y1="198.467" x2="171.367" y2="198.467" gradientUnits="userSpaceOnUse"><stop stop-color="#75C4FD"/><stop offset=".1" stop-color="#82C3F7"/><stop offset="1" stop-color="#F1B9BE"/></linearGradient></defs></svg>