<svg width="800" height="62" fill="none" xmlns="http://www.w3.org/2000/svg"><path opacity=".6" d="M771.428 58.41h.262a5.96 5.96 0 0 0 4.139-1.919c2.218-2.407 2.061-6.193-.349-8.409-2.411-2.216-6.201-2.059-8.419.349a5.866 5.866 0 0 0-1.572 4.274 5.95 5.95 0 0 0 1.921 4.135 5.82 5.82 0 0 0 4.018 1.57Zm.017-10.24c1.048 0 2.078.366 2.917 1.133a4.297 4.297 0 0 1 .244 6.072c-.786.837-1.834 1.343-2.986 1.378a4.236 4.236 0 0 1-3.092-1.134c-.838-.785-1.345-1.832-1.38-2.983a4.227 4.227 0 0 1 1.136-3.088 4.29 4.29 0 0 1 3.161-1.379Z" fill="#FFB0EB"/><path opacity=".6" d="M540.023 29.97a2.025 2.025 0 1 1 0-4.048c1.119 0 2.027.906 2.027 2.024a2.026 2.026 0 0 1-2.027 2.023Z" fill="url('#paint0_linear_482_3319')"/><path opacity=".6" d="M722.945 18.75a2.025 2.025 0 1 1 2.026-2.023 2.025 2.025 0 0 1-2.026 2.024Z" fill="url('#paint1_linear_482_3319')"/><path opacity=".6" d="M629.995 38.98c.315 0 .629-.105.891-.297l13.554-10.294c.437-.331.664-.89.559-1.43-.105-.541-.489-.995-1.013-1.152l-18.165-5.792a1.503 1.503 0 0 0-1.485.349c-.384.384-.541.942-.384 1.465l4.611 16.086c.14.471.489.838.961.995.157.052.314.07.471.07Zm10.393-11.219-9.572 7.275-3.248-11.357 12.82 4.082Z" fill="url('#paint2_linear_482_3319')"/><path opacity=".6" d="M474.407 30.677h.14c5.467-.07 9.868-4.589 9.799-10.05-.07-5.46-4.577-9.857-10.061-9.787-5.467.07-9.868 4.588-9.798 10.049.069 5.426 4.506 9.788 9.92 9.788Zm0-17.255c4 0 7.301 3.227 7.354 7.24.052 4.048-3.197 7.38-7.249 7.433-4.052.07-7.388-3.193-7.44-7.24-.053-4.049 3.196-7.38 7.248-7.433h.087Z" fill="#86E29B"/><path opacity=".6" d="M295.91 44.665a1.349 1.349 0 0 0-1.265-1.413c-2.955-.166-4.602 1.179-5.923 2.255-1.2.99-2.148 1.768-4.061 1.648-1.908-.103-2.762-.994-3.852-2.093-1.193-1.215-2.667-2.735-5.623-2.9-2.955-.165-4.602 1.18-5.923 2.255-1.2.99-2.149 1.768-4.061 1.649-1.908-.103-2.762-.994-3.852-2.093-1.194-1.216-2.668-2.735-5.623-2.9-2.956-.166-4.603 1.178-5.923 2.255-1.2.99-2.149 1.768-4.061 1.648a1.352 1.352 0 0 0-1.416 1.264 1.35 1.35 0 0 0 1.265 1.413c2.956.166 4.603-1.179 5.923-2.255 1.2-.99 2.149-1.768 4.061-1.648 1.908.103 2.762.994 3.852 2.093 1.194 1.215 2.668 2.735 5.623 2.9 2.956.165 4.603-1.18 5.924-2.256 1.199-.99 2.148-1.767 4.061-1.648 1.908.103 2.761.994 3.851 2.093 1.194 1.216 2.668 2.735 5.623 2.9 2.956.166 4.603-1.178 5.924-2.255 1.199-.99 2.148-1.768 4.061-1.648a1.351 1.351 0 0 0 1.415-1.264ZM361.428 58.41h.262a5.963 5.963 0 0 0 4.14-1.919c2.218-2.407 2.061-6.193-.35-8.409-2.41-2.216-6.2-2.059-8.419.349a5.87 5.87 0 0 0-1.571 4.274 5.946 5.946 0 0 0 1.921 4.135 5.818 5.818 0 0 0 4.017 1.57Zm.017-10.24c1.048 0 2.079.366 2.917 1.133a4.296 4.296 0 0 1 .245 6.072c-.786.837-1.834 1.343-2.987 1.378a4.234 4.234 0 0 1-3.091-1.134c-.839-.785-1.345-1.832-1.38-2.983a4.222 4.222 0 0 1 1.135-3.088 4.293 4.293 0 0 1 3.161-1.379Z" fill="#FFB0EB"/><path opacity=".6" d="M130.024 29.97a2.025 2.025 0 1 1 2.026-2.024 2.025 2.025 0 0 1-2.026 2.023Z" fill="url('#paint3_linear_482_3319')"/><path opacity=".6" d="M322.946 4.75a2.025 2.025 0 1 1 2.026-2.023 2.025 2.025 0 0 1-2.026 2.024Z" fill="url('#paint4_linear_482_3319')"/><path opacity=".6" d="M179.996 61.98c.314 0 .629-.105.891-.297l13.553-10.294c.437-.331.664-.89.559-1.43a1.485 1.485 0 0 0-1.013-1.152l-18.165-5.792a1.501 1.501 0 0 0-1.484.349c-.384.384-.542.942-.384 1.465l4.611 16.086c.139.471.489.838.96.995.157.052.315.07.472.07Zm10.392-11.219-9.571 7.275-3.249-11.357 12.82 4.082Z" fill="url('#paint5_linear_482_3319')"/><path opacity=".6" d="M34.408 30.677h.14c5.466-.07 9.868-4.589 9.798-10.05-.07-5.46-4.576-9.857-10.06-9.787-5.468.07-9.869 4.588-9.8 10.049.07 5.426 4.507 9.788 9.922 9.788Zm0-17.255c4 0 7.3 3.227 7.353 7.24.052 4.048-3.196 7.38-7.248 7.433-4.053.07-7.389-3.193-7.441-7.24-.052-4.049 3.196-7.38 7.248-7.433h.088Z" fill="#86E29B"/><defs><linearGradient id="paint0_linear_482_3319" x1="542.049" y1="27.953" x2="537.996" y2="27.953" gradientUnits="userSpaceOnUse"><stop stop-color="#75C3FC"/><stop offset="1" stop-color="#75C3FC"/></linearGradient><linearGradient id="paint1_linear_482_3319" x1="724.971" y1="16.733" x2="720.918" y2="16.733" gradientUnits="userSpaceOnUse"><stop stop-color="#75C3FC"/><stop offset="1" stop-color="#75C3FC"/></linearGradient><linearGradient id="paint2_linear_482_3319" x1="645.028" y1="29.464" x2="623.903" y2="29.464" gradientUnits="userSpaceOnUse"><stop stop-color="#FFE466"/><stop offset="1" stop-color="#FFAFEA"/></linearGradient><linearGradient id="paint3_linear_482_3319" x1="132.05" y1="27.953" x2="127.996" y2="27.953" gradientUnits="userSpaceOnUse"><stop stop-color="#75C3FC"/><stop offset="1" stop-color="#75C3FC"/></linearGradient><linearGradient id="paint4_linear_482_3319" x1="324.971" y1="2.733" x2="320.918" y2="2.733" gradientUnits="userSpaceOnUse"><stop stop-color="#75C3FC"/><stop offset="1" stop-color="#75C3FC"/></linearGradient><linearGradient id="paint5_linear_482_3319" x1="195.028" y1="52.464" x2="173.904" y2="52.464" gradientUnits="userSpaceOnUse"><stop stop-color="#FFE466"/><stop offset="1" stop-color="#FFAFEA"/></linearGradient></defs></svg>