<svg width="817" height="54" fill="none" xmlns="http://www.w3.org/2000/svg"><g opacity=".75"><path opacity=".6" d="M720.209 36.467a1.357 1.357 0 0 0-1.222-1.448c-2.952-.227-4.629 1.081-5.956 2.128-1.223.96-2.201 1.71-4.105 1.57-1.904-.157-2.742-1.046-3.808-2.18-1.17-1.24-2.602-2.792-5.554-3.036-2.952-.227-4.628 1.082-5.956 2.128-1.222.96-2.2 1.71-4.104 1.57-1.904-.157-2.742-1.046-3.808-2.18-1.17-1.24-2.602-2.792-5.554-3.036-2.952-.227-4.611 1.082-5.956 2.128-1.223.96-2.201 1.71-4.105 1.57a1.357 1.357 0 0 0-1.449 1.222c-.07.733.489 1.378 1.222 1.448 2.952.227 4.611-1.082 5.956-2.129 1.223-.96 2.201-1.71 4.105-1.57 1.904.157 2.742 1.047 3.807 2.181 1.171 1.239 2.603 2.792 5.555 3.036 2.951.227 4.611-1.082 5.956-2.129 1.222-.96 2.2-1.71 4.104-1.57 1.904.157 2.742 1.047 3.808 2.181 1.17 1.239 2.602 2.791 5.554 3.036 2.952.227 4.629-1.082 5.956-2.129 1.223-.96 2.201-1.71 4.105-1.57a1.333 1.333 0 0 0 1.449-1.221Z" fill="#FBC49D"/><path opacity=".6" d="M488.556 23.141c.186 0 .372-.05.534-.149l14.302-8.47c.348-.21.546-.607.509-1.004a1.033 1.033 0 0 0-.708-.868l-20.621-6.71a1.035 1.035 0 0 0-1.08.286 1.059 1.059 0 0 0-.199 1.103l6.319 15.18c.112.273.348.496.634.582.099.025.198.05.31.05Zm11.807-9.239L489.065 20.6l-4.991-11.992 16.289 5.295Z" fill="#75C4FD"/><path opacity=".6" d="M599.843 19.624c.227 0 .472-.017.699-.052 2.934-.384 4.995-3.07 4.628-6.002a5.368 5.368 0 0 0-2.043-3.559 5.311 5.311 0 0 0-3.965-1.064 5.375 5.375 0 0 0-3.563 2.041 5.294 5.294 0 0 0-1.065 3.96 5.372 5.372 0 0 0 5.309 4.676Zm.018-9.055c.821 0 1.607.262 2.253.768a3.687 3.687 0 0 1 1.415 2.46 3.738 3.738 0 0 1-3.197 4.17 3.74 3.74 0 0 1-4.174-3.193 3.759 3.759 0 0 1 .733-2.74 3.692 3.692 0 0 1 2.463-1.412c.175-.053.35-.053.507-.053ZM789.426 33.06h.14c5.467-.07 9.869-4.588 9.799-10.049-.07-5.46-4.576-9.857-10.061-9.787-5.467.07-9.868 4.588-9.798 10.049.07 5.426 4.506 9.787 9.92 9.787Zm0-17.254c4 0 7.301 3.227 7.354 7.24.052 4.048-3.197 7.38-7.249 7.432-4.052.07-7.388-3.193-7.44-7.24-.053-4.048 3.196-7.38 7.248-7.432h.087Z" fill="#86E29B"/></g><g opacity=".75"><path opacity=".6" d="M169.843 29.624c.228 0 .472-.017.699-.052 2.934-.384 4.995-3.07 4.629-6.002a5.369 5.369 0 0 0-2.044-3.559 5.311 5.311 0 0 0-3.965-1.064 5.38 5.38 0 0 0-3.563 2.041 5.299 5.299 0 0 0-1.065 3.96 5.373 5.373 0 0 0 5.309 4.676Zm.018-9.055c.821 0 1.607.262 2.253.768a3.683 3.683 0 0 1 1.415 2.46 3.737 3.737 0 0 1-3.196 4.17 3.74 3.74 0 0 1-4.175-3.193 3.755 3.755 0 0 1 .734-2.74 3.687 3.687 0 0 1 2.462-1.412c.175-.053.35-.053.507-.053Z" fill="#86E29B"/><path opacity=".6" d="M306.157 32.097a2.025 2.025 0 1 1 2.026-2.023 2.025 2.025 0 0 1-2.026 2.023Z" fill="url('#paint0_linear_482_3306')"/><path opacity=".6" d="M88.076 4.29a2.025 2.025 0 1 1 2.026-2.024 2.025 2.025 0 0 1-2.026 2.024Z" fill="url('#paint1_linear_482_3306')"/><path opacity=".6" d="M123.285 47.914a2.025 2.025 0 1 1 2.026-2.024 2.025 2.025 0 0 1-2.026 2.024Z" fill="url('#paint2_linear_482_3306')"/><path opacity=".75" d="M21.091 29.962a3.282 3.282 0 0 1-3.283-3.28c0-1.811 1.47-3.28 3.284-3.28a3.282 3.282 0 0 1 3.283 3.28c0 1.812-1.47 3.28-3.284 3.28Z" fill="url('#paint3_linear_482_3306')"/><path opacity=".6" d="M379.426 53.06h.14c5.467-.07 9.869-4.59 9.799-10.05-.07-5.46-4.576-9.857-10.061-9.788-5.467.07-9.868 4.589-9.798 10.05.069 5.426 4.506 9.787 9.92 9.787Zm0-17.255c4 0 7.301 3.227 7.354 7.24.052 4.048-3.197 7.38-7.249 7.432-4.052.07-7.388-3.192-7.44-7.24-.053-4.048 3.196-7.38 7.248-7.432h.087Z" fill="#86E29B"/></g><defs><linearGradient id="paint0_linear_482_3306" x1="308.177" y1="30.068" x2="304.124" y2="30.068" gradientUnits="userSpaceOnUse"><stop stop-color="#75C3FC"/><stop offset="1" stop-color="#75C3FC"/></linearGradient><linearGradient id="paint1_linear_482_3306" x1="90.101" y1="2.272" x2="86.048" y2="2.272" gradientUnits="userSpaceOnUse"><stop stop-color="#75C3FC"/><stop offset="1" stop-color="#75C3FC"/></linearGradient><linearGradient id="paint2_linear_482_3306" x1="125.31" y1="45.896" x2="121.257" y2="45.896" gradientUnits="userSpaceOnUse"><stop stop-color="#75C3FC"/><stop offset="1" stop-color="#75C3FC"/></linearGradient><linearGradient id="paint3_linear_482_3306" x1="24.373" y1="26.802" x2="17.797" y2="26.568" gradientUnits="userSpaceOnUse"><stop stop-color="#75C3FC"/><stop offset="1" stop-color="#75C3FC"/></linearGradient></defs></svg>